<svg xmlns="http://www.w3.org/2000/svg" viewBox="0 0 800 500" preserveAspectRatio="xMidYMid slice" role="img" aria-label="Casa com painéis solares">
  <defs>
    <linearGradient id="sky" x1="0" y1="0" x2="0" y2="1"><stop offset="0" stop-color="#5fb0f6"/><stop offset="1" stop-color="#d7ecff"/></linearGradient>
    <linearGradient id="panel" x1="0" y1="0" x2="1" y2="1"><stop offset="0" stop-color="#0f5236"/><stop offset="1" stop-color="#04190f"/></linearGradient>
    <radialGradient id="sun" cx="50%" cy="50%" r="50%"><stop offset="0" stop-color="#ffe49a"/><stop offset="1" stop-color="#f59e0b"/></radialGradient>
  </defs>
  <rect width="800" height="500" fill="url(#sky)"/>
  <circle cx="650" cy="110" r="96" fill="#fbbf24" opacity="0.25"/>
  <circle cx="650" cy="110" r="62" fill="url(#sun)"/>
  <ellipse cx="210" cy="120" rx="70" ry="26" fill="#ffffff" opacity="0.85"/>
  <ellipse cx="262" cy="135" rx="55" ry="22" fill="#ffffff" opacity="0.8"/>
  <rect y="372" width="800" height="128" fill="#34d399"/>
  <rect y="372" width="800" height="16" fill="#10b981"/>
  <rect x="470" y="250" width="240" height="150" fill="#f6f4ef"/>
  <rect x="470" y="250" width="240" height="150" fill="none" stroke="#e2ded5" stroke-width="3"/>
  <polygon points="450,256 590,150 730,256" fill="#c2774f"/>
  <polygon points="450,256 590,150 730,256" fill="none" stroke="#a85f3f" stroke-width="3"/>
  <rect x="560" y="320" width="48" height="80" rx="3" fill="#8a5a3c"/>
  <rect x="498" y="290" width="46" height="46" rx="3" fill="#bfe3ff"/><rect x="636" y="290" width="46" height="46" rx="3" fill="#bfe3ff"/>
  <g transform="translate(70,235)">
    <rect x="118" y="170" width="14" height="60" fill="#9aa3b8"/><rect x="250" y="158" width="14" height="60" fill="#9aa3b8"/>
    <g transform="skewY(-13)">
      <rect x="0" y="0" width="300" height="160" rx="8" fill="url(#panel)"/>
      <g stroke="#10b981" stroke-width="3" opacity="0.6"><line x1="75" y1="0" x2="75" y2="160"/><line x1="150" y1="0" x2="150" y2="160"/><line x1="225" y1="0" x2="225" y2="160"/><line x1="0" y1="53" x2="300" y2="53"/><line x1="0" y1="106" x2="300" y2="106"/></g>
      <rect x="0" y="0" width="300" height="160" rx="8" fill="none" stroke="#04190f" stroke-width="7"/>
      <polygon points="6,8 70,8 20,150 6,150" fill="#ffffff" opacity="0.10"/>
    </g>
  </g>
</svg>
