<svg xmlns="http://www.w3.org/2000/svg" viewBox="0 0 800 500" preserveAspectRatio="xMidYMid slice" role="img" aria-label="Prédio comercial com energia solar">
  <defs>
    <linearGradient id="sky" x1="0" y1="0" x2="0" y2="1"><stop offset="0" stop-color="#5fb0f6"/><stop offset="1" stop-color="#d7ecff"/></linearGradient>
    <linearGradient id="panel" x1="0" y1="0" x2="1" y2="1"><stop offset="0" stop-color="#0f5236"/><stop offset="1" stop-color="#04190f"/></linearGradient>
    <radialGradient id="sun" cx="50%" cy="50%" r="50%"><stop offset="0" stop-color="#ffe49a"/><stop offset="1" stop-color="#f59e0b"/></radialGradient>
  </defs>
  <rect width="800" height="500" fill="url(#sky)"/>
  <circle cx="660" cy="100" r="92" fill="#fbbf24" opacity="0.25"/>
  <circle cx="660" cy="100" r="58" fill="url(#sun)"/>
  <rect y="372" width="800" height="128" fill="#9aa6b8"/>
  <rect y="372" width="800" height="14" fill="#8693a8"/>
  <rect x="430" y="200" width="300" height="200" fill="#eef2f8"/>
  <rect x="430" y="200" width="300" height="200" fill="none" stroke="#d6dde8" stroke-width="3"/>
  <rect x="430" y="200" width="300" height="34" fill="#0f5236"/>
  <g fill="#bfe3ff">
    <rect x="452" y="252" width="40" height="40"/><rect x="510" y="252" width="40" height="40"/><rect x="568" y="252" width="40" height="40"/><rect x="626" y="252" width="40" height="40"/><rect x="684" y="252" width="22" height="40"/>
    <rect x="452" y="306" width="40" height="40"/><rect x="510" y="306" width="40" height="40"/><rect x="568" y="306" width="40" height="40"/><rect x="626" y="306" width="40" height="40"/><rect x="684" y="306" width="22" height="40"/>
  </g>
  <rect x="556" y="356" width="60" height="44" fill="#0f5236"/>
  <g transform="translate(70,235)">
    <rect x="118" y="170" width="14" height="60" fill="#9aa3b8"/><rect x="250" y="158" width="14" height="60" fill="#9aa3b8"/>
    <g transform="skewY(-13)">
      <rect x="0" y="0" width="300" height="160" rx="8" fill="url(#panel)"/>
      <g stroke="#10b981" stroke-width="3" opacity="0.6"><line x1="75" y1="0" x2="75" y2="160"/><line x1="150" y1="0" x2="150" y2="160"/><line x1="225" y1="0" x2="225" y2="160"/><line x1="0" y1="53" x2="300" y2="53"/><line x1="0" y1="106" x2="300" y2="106"/></g>
      <rect x="0" y="0" width="300" height="160" rx="8" fill="none" stroke="#04190f" stroke-width="7"/>
      <polygon points="6,8 70,8 20,150 6,150" fill="#ffffff" opacity="0.10"/>
    </g>
  </g>
</svg>
